<svg width="23" height="6" viewBox="0 0 23 6" fill="none" xmlns="http://www.w3.org/2000/svg">
<path d="M21.5103 1.93057H12.2102C11.8545 0.873937 10.855 0.110535 9.67998 0.110535C8.50491 0.110535 7.50549 0.873937 7.14973 1.93057H1.48975C1.02054 1.93057 0.640137 2.31097 0.640137 2.78018C0.640137 3.24939 1.02054 3.62979 1.48975 3.62979H7.14973C7.50549 4.68642 8.50491 5.44982 9.67998 5.44982C10.855 5.44982 11.8545 4.68642 12.2102 3.62979H21.5103C21.9795 3.62979 22.3599 3.24939 22.3599 2.78018C22.3599 2.31097 21.9795 1.93057 21.5103 1.93057ZM9.67998 3.75066C9.1449 3.75066 8.70956 3.31532 8.70956 2.78023C8.70956 2.24515 9.1449 1.80981 9.67998 1.80981C10.2151 1.80981 10.6504 2.24509 10.6504 2.78018C10.6504 3.31526 10.2151 3.75066 9.67998 3.75066Z" fill="black"/>
</svg>
